<svg version="1.1" xmlns="http://www.w3.org/2000/svg" x="0px" y="0px"
	 width="503.6px" height="235.5px" viewBox="0 0 503.6 235.5" style="enable-background:new 0 0 503.6 235.5;">
<style type="text/css">
<![CDATA[
	.st0{fill:#C9C9C9;}
]]>
</style>
	<g>
		<path class="st0" d="M279.4,86.7c0-3.6-10.5-9-15.3-9c-4.8,0-23.3,9.8-24.9,12.5c-1.6,2.6-6.4,36-8.4,41.9
			c-2,6-15.9,21.1-19.5,21.1c-2.7,0-10.6-12.3-14.1-20.8c11.7-4,21-7.8,23.1-10c3.1-3.3,8.6-17,9.4-22.1s0.3-11.7-0.8-13.9
			c-1.2-2.5-26.9-11-32.1-7.2c-6.5,4.8-15.1,33.2-17,47.4c-3.9,1.9-7.7,3.7-11.1,5.3c2.9-5.2,4.7-10.5,4.9-11.7
			c1.2-8-0.4-20.6-2.5-26.5c-2.6-7.2-14.2-15.3-17-15.3c-2.8,0-28,3.2-30,6.8c-2,3.6-16.1,30.4-21.4,36.6c-0.6-8,1.5-32.9,1.3-35.4
			c-0.1-1.6-1.9-6.2-4.9-6.1c-4,0.1-8.9,0.2-11.1,1.3C86.3,82.4,69.5,92,51.1,103c-2.9-7.7-6.9-15.3-9.3-18.7
			c-3.6-4.9-32.5,3.6-34.1,6c-0.4,0.6,0.5,17.6,1.8,38.8c-6.2,4.3-9.9,7.3-9.5,8.2c1.1,2.3,5.3,6.1,10.6,9c2.1,31.6,4.6,65,5.3,65.8
			c1.3,1.5,8.9,3.6,10.3,3.6s3.2-2.4,3.2-2.4s-0.7-32.9-1.1-63.9c9.6-2.1,20.7-9.3,23.4-11.3c3.2-2.4,2.8-10.3,2.8-20.3
			c0-1.7-0.3-3.6-0.7-5.6l13.4-8.4c-1.6,3.2-6.1,22.2-5.6,27.9c0.4,4.6,3.9,10.5,7.6,10.7c6.8,0.5,19.9-26.1,19.9-26.1
			s0.4,20.6,0.1,25.6c0.7,4.2,9.5,3.1,12.1,2.4c4.4-0.4,22-36.1,22-32.5c0,1.9-5.2,29.4-6,54.1c-0.6,20.2,3.6,44.1,3.6,48.5
			c0,9.2,13.7,7.1,14.3,5.6c2.2-5.4,3.2-75.6,3.2-75.6c3.2,0,7.9,1.5,11.1,1.6c0,0,0,0,0.1,0c0,0,0.1,0,0.1,0c0.7,0,1.3,0,1.8-0.1
			c0.7-0.2,1.7-0.5,2.9-0.9c7.8-1.9,17.3-4.5,26.7-7.4c5.5,12.8,16.6,20.1,18.6,21.2c3.3,1.8,16.3,1.2,20.5,0s18.1-16.3,20.9-21.9
			c2.8-5.6,11.1-30.6,11.9-33c0.8-2.4,4-0.4,4,1.2s-8.9,33.8-7.6,43.4c1.3,9.3,9.9,18.7,12.3,19.5c2.4,0.8,8.4-3.2,10.3-6.8
			c2-3.6-4.8-15.9-4.8-21.1C267.4,134.9,279.4,90.3,279.4,86.7z M29.1,95.9c4.4,1.9,8.6,7.8,10.3,14.2c-3.8,2.3-7.6,4.6-11.1,6.9
			C28.3,104.9,28.5,96.4,29.1,95.9z M32.3,140.4c-1.3,0.9-2.7,1.1-4,0.9c0-4.5-0.1-9-0.1-13.2l11.6-7.3
			C39.2,128.1,37.2,137,32.3,140.4z M90.7,93.1c-1.8,13.9-7.1,22.1-13.8,28c-0.9-6.7,3-19.4,7.3-25.2C86,93.8,91.1,90.8,90.7,93.1z
			 M206.2,95.1c2.4-1.2,12.9,0.2,12.9,1.8c0,1.6-12.1,14.4-17,18.1c-0.6,0.5-2.4,1.5-5,2.9C199.6,108.6,204.4,96,206.2,95.1z
			 M139,131.4c-1.1-5.7-0.7-24.2-0.1-26.8c0.7-3.2,6.5-11.6,10.7-14.3c4.4,0,7.8,4.6,10.1,14.1c0,7.2,0.7,18-2.4,19.9
			C154.9,125.8,144.2,132.5,139,131.4z"/>
		<path class="st0" d="M482.2,83c-2.4,0-15.4,30.7-15.8,30.1c-0.4-0.6-0.9-49.8-0.9-49.8c-0.7-3.6-20.3-2.4-23.1-1.9
			c-1.9,0.4-12.6,17.5-19.3,28.1c-1.2-12.5-2.3-22-2.4-23.5c-0.4-4.4-6.8-4-13.1-2c-6.4,2-16.7,50.9-21.5,59.7
			c0.8-5.2-4.6-56.4-10.6-56.4c-11.1,0-37.5,18.6-43.5,23.3c-2.4,1.4-4.7,3-7,4.5c-0.5-11-1.3-21.7-2.7-23.5
			c-2.8-3.6-16.7-1.9-16.6,1.4c0.2,7.2,0.5,22.1,0.6,38.7c-20.7,22.8-28,49.4-28,60.2c0,14.5,13.1,47.6,15.1,50
			c2,2.4,19.1,6,22.3,5.2c3.2-0.8,9.9-99.1,9.9-106.6c0-1.5,0-4.3-0.1-7.7c3.1-2.7,6.2-5.3,9.3-7.7c-1.6,9.3-4.3,27.5-3.7,30.6
			c0.8,4,12.3,18.3,16.7,18.3c2.6,0,12.6-20.4,20.1-36.5c1.3,16.6,2.8,33.7,3.4,34.1c1.2,0.8,13.1-0.4,16.7-1
			c3.6-0.6,11.9-38,13.9-39.6c-0.1,9,0.6,43.1,1.8,46.3c1.2,3.2,15.9,2.9,21.8,2.9c0.2-0.9,0.4-2,0.6-3.3c1.7-8,11.2-51.6,11.2-48.7
			c0,3.2,11.9,50.9,11.9,50.9s3.2,1.6,6.4,1.2s25.9-53.4,25.9-53.4c-0.8,8.3-8.8,55-5.2,55c3.6,0,12.7-2,15.5-3.6s4.8-69.8,4.8-72.8
			S484.6,83,482.2,83z M296.1,148.5c2.6-5.3,6.1-10.5,10-15.5c-0.2,20.9-1,40.6-2.9,48C294.9,177.9,293.3,160.3,296.1,148.5z
			 M349.5,124.7c-2.4-4.1-0.7-17.4,0.1-20.2c0.8-2.6,7.2-15.4,16.1-17.8c0,0.4,0,1.1,0.1,2C361.7,100.2,352.7,124.2,349.5,124.7z"/>
	</g>
	<g>
		<path class="st0" d="M14,16.6h17c3,0,5.8,0.6,8.5,1.8c2.6,1.2,4.9,2.8,6.9,4.8c2,2,3.5,4.4,4.7,7c1.1,2.7,1.7,5.5,1.7,8.4
			c0,2.9-0.6,5.7-1.7,8.4c-1.1,2.7-2.7,5-4.6,7.1c-2,2-4.3,3.7-6.9,4.9c-2.6,1.2-5.5,1.8-8.5,1.8H14V16.6z M25.5,51.1h2.6
			c2,0,3.8-0.3,5.3-0.9c1.6-0.6,2.9-1.5,4-2.6c1.1-1.1,1.9-2.4,2.5-3.9c0.6-1.5,0.9-3.2,0.9-5c0-1.8-0.3-3.4-0.9-4.9
			c-0.6-1.5-1.4-2.8-2.5-3.9c-1.1-1.1-2.4-2-4-2.6c-1.6-0.6-3.3-0.9-5.3-0.9h-2.6V51.1z"/>
		<path class="st0" d="M68.9,37.3L55.1,16.6h14.2l6,11.4l7.4-11.4h14.2L82.3,37.3l16.5,23.6h-14l-8.9-14.4L65.5,60.8H51.6L68.9,37.3
			z"/>
		<path class="st0" d="M102.9,16.6H120c4.1,0,7.2,1,9.3,2.9c2.1,2,3.2,4.8,3.2,8.4c0,2.2-0.4,4.1-1.2,5.5c-0.8,1.5-2,2.7-3.7,3.7
			c1.6,0.3,3,0.8,4.2,1.4c1.2,0.6,2.1,1.4,2.8,2.4c0.7,0.9,1.2,2,1.6,3.2c0.3,1.2,0.5,2.4,0.5,3.8c0,2.1-0.4,3.9-1.1,5.5
			c-0.7,1.6-1.7,3-3.1,4c-1.3,1.1-2.9,1.9-4.8,2.5c-1.9,0.5-4,0.8-6.3,0.8h-18.5V16.6z M114.4,34h2.1c3.6,0,5.4-1.4,5.4-4.3
			c0-2.9-1.8-4.3-5.4-4.3h-2.1V34z M114.4,51.9h2.5c2.9,0,5-0.4,6.2-1.1c1.3-0.7,1.9-1.9,1.9-3.6c0-1.6-0.6-2.8-1.9-3.6
			c-1.3-0.7-3.3-1.1-6.2-1.1h-2.5V51.9z"/>
		<path class="st0" d="M150.9,39.6l-16.1-23h13.7l8.2,12.1l8.2-12.1h13.7l-16.2,23v21.2h-11.5V39.6z"/>
	</g>
</svg>
