<svg version="1.1" id="Layer_1" xmlns="http://www.w3.org/2000/svg" xmlns:xlink="http://www.w3.org/1999/xlink" x="0px" y="0px"
	 width="234.8px" height="115.1px" viewBox="0 0 234.8 115.1" enable-background="new 0 0 234.8 115.1" xml:space="preserve">
<path fill="#1FCDBB" d="M23.9,79.2c0,5-4.9,9.8-12,9.8c-5.8,0-9.4-2.4-11.3-3.9c-0.4-0.3-0.7-1.2-0.4-1.8c0.3-0.5,1-1.7,1.2-2.2
	c0.4-0.7,1.4-0.9,2.3-0.3c0,0,3.7,3,8.2,3c3.6,0,5.6-1.8,5.6-4.2c0-3-2.6-4.4-7.6-6.9C5.3,70.5,0,67.5,0,61.6c0-3.6,3-9,11-9
	c4.5,0,8,1.6,9.6,2.7c0.8,0.5,1,1.7,0.5,2.7l-0.7,1.4c-0.5,1-1.7,1.2-2.5,0.8c0,0-3.7-2.1-6.9-2.1c-3.9,0-4.9,2-4.9,3.5
	c0,2.9,2.9,4.2,6.4,5.9C18.5,70.2,23.9,72.9,23.9,79.2z M60,70.9C60,81,52.9,89,43.4,89c-5.7,0-9.3-2.9-9.3-2.9v26.4
	c0,0.9-0.8,1.6-1.6,1.6h-2.7c-0.9,0-1.6-0.8-1.6-1.6V55c0-0.9,0.8-1.7,1.6-1.7h1.8c0.8,0,1,0.3,1.4,1.1l0.6,1.7
	c0,0,3.8-3.6,10.1-3.6C53.1,52.5,60,60.9,60,70.9z M54,70.8C54,64,50,58,43,58c-5.6,0-8.9,4.3-8.9,4.3v17.9c0,0,3.6,3,8.4,3
	C49.3,83.2,54,77.7,54,70.8z M81.2,52.5c-7.2,0-10.4,4.6-10.4,4.6l-0.7-2.5c-0.2-0.8-0.8-1.2-1.5-1.2H67c-0.9,0-1.6,0.8-1.6,1.7
	v31.4c0,0.9,0.8,1.6,1.6,1.6h2.7c0.9,0,1.6-0.8,1.6-1.6V63.3c0,0,2.9-4.9,9.5-4.9c1.3,0,2.6,0.3,3.4,0.7c0.9,0.3,1.6,0.3,2.1-0.8
	l1-3C88.1,53,83.8,52.5,81.2,52.5z M96.2,53.4h-2.7c-0.9,0-1.6,0.8-1.6,1.7v31.4c0,0.9,0.8,1.6,1.6,1.6h2.7c0.9,0,1.6-0.8,1.6-1.6
	V55C97.9,54.2,97.1,53.4,96.2,53.4z M94.7,29.1c-2.3,0-4.1,1.8-4.1,4.2c0,2.3,1.8,4.1,4.1,4.1c2.3,0,4.2-1.8,4.2-4.1
	C98.9,30.9,97.1,29.1,94.7,29.1z M121.7,52.5c-7.2,0-12.2,4.6-12.2,4.6l-0.8-2.7c-0.2-0.7-0.6-1-1.4-1h-1.6c-0.9,0-1.6,0.8-1.6,1.7
	v31.4c0,0.9,0.8,1.6,1.6,1.6h2.7c0.9,0,1.6-0.8,1.6-1.6V63.3c0,0,4.7-4.9,11.2-4.9c4.9,0,7.8,3.2,7.8,9.8v18.3
	c0,0.9,0.8,1.6,1.7,1.6h2.8c0.9,0,1.6-0.8,1.6-1.6V68.2C135.1,59.1,131.7,52.5,121.7,52.5z M175.3,101c0,7.2-7.5,14.1-18,14.1
	c-11.6,0-16.7-6.3-16.7-12c0-5.2,4.2-7.6,5-8.1v-0.3c-2.3-0.6-6.3-2.9-6.3-8.2c0-6.6,5.8-10,5.8-10s-2.8-3.6-2.8-8.7
	c0-8.1,5.6-15.3,14.7-15.3h14.7c1,0,1.7,0.7,1.7,1.6v1.5c0,0.6-0.3,1.4-1,1.5l-4.7,1c0,0,3.9,2.9,3.9,9.7c0,7.9-5.6,14.8-14.6,14.8
	c-5.6,0-8.2-2.2-8.2-2.2s-3.8,1.7-3.8,5.2c0,2.2,1.6,4.3,4.8,4.3h12.5C169.6,89.9,175.3,93.4,175.3,101z M148.1,67.6
	c0,5.7,3.8,9.7,9.1,9.7c5.2,0,8.7-4,8.7-9.7s-3.5-9.7-8.7-9.7C151.9,57.9,148.1,61.9,148.1,67.6z M168.9,101.2
	c0-1.1-0.5-5.6-6.6-5.6c-3.2,0-6.4,0-9.6,0c0,0-5.8,1.6-5.8,6.7c0,4.2,4.5,7.2,10.4,7.2C163,109.4,168.9,106.2,168.9,101.2z
	 M234.8,40.8c-0.8,9.1-6.5,17.1-14.7,21c-3.4,1.6-7.1,2.4-10.8,2.4c-2.6,0-5.3-0.4-7.8-1.2c-0.3,1.2-0.7,2.4-1.1,3.6
	c-3.6,9.5-11,17.2-20.4,21c-0.3,0.1-0.6,0.2-0.9,0.2c-1,0-1.9-0.6-2.3-1.6c-0.5-1.3,0.1-2.7,1.4-3.3c2.3-0.9,4.4-2.1,6.4-3.5
	c-2.3-1.5-4.2-3.7-5.1-6.4c-1.3-4.1-0.4-8.6,2.5-11.7c0.6-0.7,1.5-1,2.4-0.8c4.2,0.9,7.6,3.9,8.9,8c0.1,0.3,0.2,0.7,0.3,1.1
	c0.9-1.5,1.6-3.1,2.2-4.7c0.3-0.9,0.6-1.7,0.8-2.6c-10.8-5.5-18.4-16.1-19.8-28.2c-1.5-12.9,4-25.7,14.4-33.4
	c0.7-0.5,1.7-0.6,2.5-0.3c11.9,5.1,20.2,16.3,21.8,29.2c0.2,1.6,0.3,3.2,0.2,4.8c6.3-0.8,12.8,0.7,18.1,4.4
	C234.5,39.1,234.9,40,234.8,40.8z M188.5,70c-0.6-1.9-2-3.4-3.7-4.2c-0.9,1.7-1.1,3.7-0.5,5.6c0.6,1.9,2,3.4,3.7,4.2
	C188.9,73.9,189.1,71.8,188.5,70z M210.5,30c-1.3-10.6-7.9-19.9-17.4-24.6c-8.2,6.8-12.5,17.3-11.3,27.9c1.1,9.6,6.6,18.1,14.8,23.1
	c-0.4-3.6-0.9-7.3-1.3-10.8c-1-8.6-2.1-17.4-3-26.1c-0.1-1.4,0.9-2.6,2.2-2.7c1.4-0.1,2.6,0.9,2.7,2.2c0.9,8.7,2,17.5,3,26
	c0.4,3.6,0.9,7.2,1.3,10.9C208.2,49.1,211.6,39.6,210.5,30z M229.6,41.9c-4.4-2.6-9.5-3.5-14.4-2.6c-0.4,2.7-1.1,5.3-2.1,7.8
	c2.3-1.1,4.4-2.1,6.5-3.1c1.2-0.6,2.7-0.1,3.4,1.1c0.6,1.2,0.1,2.7-1.1,3.4c-2.1,1.1-4.5,2.2-6.7,3.2c-2,0.9-4.1,1.9-6.1,2.9
	c-1.1,1.5-2.2,3-3.5,4.3c4.1,0.8,8.5,0.3,12.4-1.6C224.2,54.4,228.6,48.6,229.6,41.9z"/>
<g>
</g>
<g>
</g>
<g>
</g>
<g>
</g>
<g>
</g>
<g>
</g>
</svg>
