<svg version="1.1" xmlns="http://www.w3.org/2000/svg" x="0px" y="0px"
	 width="314.3px" height="256px" viewBox="0 0 314.3 256" style="enable-background:new 0 0 314.3 256;">
<style type="text/css">
<![CDATA[
	.st0{fill:#141414;}
	.st1{fill:#5310F9;}
	.st2{fill:#F22277;}
	.st3{fill:#7524AA;}
]]>
</style>
<path class="st0" d="M21.9,209.9c1,1.9,2.3,3.4,3.9,4.6c1.6,1.2,3.5,2,5.7,2.6c2.2,0.6,4.4,0.8,6.8,0.8c1.6,0,3.3-0.1,5.1-0.4
	c1.8-0.3,3.5-0.8,5.1-1.5c1.6-0.8,2.9-1.8,3.9-3.1c1.1-1.3,1.6-3,1.6-5c0-2.2-0.7-4-2.1-5.3c-1.4-1.4-3.2-2.5-5.5-3.4
	c-2.3-0.9-4.8-1.7-7.7-2.4c-2.9-0.7-5.8-1.4-8.7-2.3c-3-0.8-5.9-1.7-8.8-2.8c-2.9-1.1-5.4-2.5-7.7-4.2c-2.3-1.7-4.1-3.9-5.5-6.5
	c-1.4-2.6-2.1-5.7-2.1-9.4c0-4.1,0.9-7.7,2.7-10.8c1.8-3,4.1-5.6,6.9-7.6c2.9-2,6.1-3.5,9.7-4.5c3.6-1,7.2-1.5,10.8-1.5
	c4.2,0,8.3,0.5,12.1,1.4c3.9,0.9,7.3,2.5,10.3,4.6c3,2.1,5.4,4.8,7.2,8.1c1.8,3.3,2.6,7.2,2.6,11.9H51.3c-0.1-2.4-0.7-4.4-1.5-6
	c-0.9-1.6-2-2.8-3.4-3.7c-1.4-0.9-3.1-1.5-4.9-1.9c-1.8-0.4-3.9-0.6-6-0.6c-1.4,0-2.9,0.1-4.3,0.5c-1.4,0.3-2.7,0.8-3.9,1.6
	c-1.2,0.8-2.1,1.7-2.9,2.8c-0.8,1.1-1.1,2.6-1.1,4.3c0,1.6,0.3,2.9,0.9,3.8c0.6,1,1.8,1.9,3.6,2.7c1.8,0.8,4.2,1.7,7.3,2.5
	c3.1,0.8,7.2,1.9,12.2,3.2c1.5,0.3,3.6,0.8,6.3,1.6c2.7,0.8,5.3,2.1,8,3.8c2.6,1.7,4.9,4,6.8,6.9c1.9,2.9,2.9,6.6,2.9,11.1
	c0,3.7-0.7,7.1-2.1,10.3c-1.4,3.2-3.6,5.9-6.4,8.2c-2.8,2.3-6.3,4.1-10.5,5.4c-4.2,1.3-9,1.9-14.5,1.9c-4.4,0-8.7-0.5-12.9-1.6
	c-4.2-1.1-7.9-2.8-11.1-5.1c-3.2-2.3-5.7-5.3-7.6-8.9c-1.9-3.6-2.8-7.9-2.7-12.9h17.2C20.4,205.7,20.9,208,21.9,209.9z M88.8,171.4
	v7.5h0.2c2-3.2,4.4-5.5,7.5-6.9c3-1.4,6.3-2.1,9.9-2.1c4.6,0,8.5,0.9,11.9,2.6c3.3,1.7,6.1,4,8.2,6.9c2.2,2.9,3.8,6.2,4.9,10
	c1.1,3.8,1.6,7.8,1.6,11.9c0,3.9-0.5,7.7-1.6,11.3c-1.1,3.6-2.6,6.8-4.8,9.6c-2.1,2.8-4.8,5-8,6.7c-3.2,1.7-6.9,2.5-11.2,2.5
	c-3.6,0-6.9-0.7-10-2.2c-3-1.5-5.5-3.6-7.5-6.5h-0.2v27.7h-16v-78.8H88.8z M109.7,217.7c1.8-1.1,3.2-2.4,4.3-4.1
	c1.1-1.7,1.9-3.7,2.3-5.9c0.5-2.3,0.7-4.6,0.7-6.9c0-2.3-0.2-4.6-0.7-6.9c-0.5-2.3-1.3-4.3-2.4-6c-1.1-1.8-2.6-3.2-4.3-4.3
	c-1.8-1.1-3.9-1.6-6.5-1.6c-2.6,0-4.8,0.5-6.6,1.6c-1.8,1.1-3.2,2.5-4.3,4.2c-1.1,1.7-1.9,3.7-2.3,6c-0.4,2.3-0.7,4.6-0.7,7
	c0,2.3,0.2,4.6,0.7,6.9s1.3,4.2,2.4,5.9c1.1,1.7,2.5,3.1,4.3,4.1c1.8,1.1,4,1.6,6.5,1.6C105.7,219.3,107.9,218.7,109.7,217.7z
	 M150.8,171.4v10.8h0.2c0.8-1.8,1.8-3.5,3-5c1.3-1.5,2.7-2.9,4.4-3.9c1.7-1.1,3.4-1.9,5.3-2.5c1.9-0.6,3.8-0.9,5.9-0.9
	c1.1,0,2.2,0.2,3.5,0.6v14.9c-0.8-0.1-1.7-0.3-2.7-0.4c-1.1-0.1-2.1-0.2-3-0.2c-2.9,0-5.4,0.5-7.5,1.5c-2,1-3.7,2.3-4.9,4
	c-1.2,1.7-2.1,3.7-2.6,5.9c-0.5,2.3-0.8,4.7-0.8,7.3v26.3h-16v-58.4H150.8z M176,162.4v-13.2h16v13.2H176z M192,171.4v58.4h-16
	v-58.4H192z M211.3,171.4v8.1h0.3c2-3.4,4.7-5.8,7.9-7.4c3.2-1.5,6.5-2.3,9.9-2.3c4.3,0,7.8,0.6,10.6,1.7c2.7,1.2,4.9,2.8,6.5,4.9
	c1.6,2.1,2.7,4.6,3.3,7.6c0.6,3,1,6.3,1,9.9v35.9h-16v-33c0-4.8-0.8-8.4-2.3-10.8c-1.5-2.4-4.2-3.6-8-3.6c-4.4,0-7.5,1.3-9.5,3.9
	c-2,2.6-2.9,6.9-2.9,12.8v30.6h-16v-58.4H211.3z M309.5,234.1c-0.6,3-2,5.8-4.1,8.4c-2.1,2.6-5.2,4.8-9.1,6.6
	c-4,1.8-9.3,2.7-16,2.7c-2.9,0-5.8-0.4-8.7-1.1c-3-0.7-5.7-1.8-8.1-3.3c-2.4-1.5-4.5-3.4-6.1-5.8c-1.6-2.4-2.5-5.2-2.8-8.5h15.9
	c0.8,3,2.2,5.1,4.4,6.3c2.2,1.2,4.7,1.7,7.6,1.7c4.5,0,7.8-1.4,9.9-4.1c2.1-2.7,3.1-6.1,3-10.3V219H295c-1.7,3.1-4.2,5.4-7.4,6.8
	c-3.2,1.5-6.6,2.2-10.1,2.2c-4.4,0-8.1-0.8-11.3-2.3c-3.2-1.5-5.8-3.6-7.8-6.3c-2-2.7-3.5-5.8-4.5-9.4c-0.9-3.6-1.4-7.4-1.4-11.3
	c0-3.8,0.5-7.4,1.6-10.9c1.1-3.5,2.7-6.6,4.8-9.3c2.1-2.7,4.7-4.8,7.8-6.4c3.1-1.6,6.7-2.4,10.8-2.4c3.8,0,7.2,0.7,10.1,2.1
	c2.9,1.4,5.3,3.8,7.3,7.2h0.2v-7.8h15.2V226C310.5,228.4,310.2,231,309.5,234.1z M287.6,214.6c1.7-0.9,3.2-2.1,4.3-3.6
	c1.1-1.5,2-3.2,2.5-5.1c0.6-1.9,0.8-3.9,0.8-6c0-2.4-0.2-4.7-0.7-6.8c-0.4-2.1-1.2-4-2.3-5.7c-1.1-1.7-2.4-3-4.2-3.9
	c-1.7-1-3.9-1.5-6.5-1.5c-2.3,0-4.2,0.5-5.8,1.4c-1.6,0.9-3,2.1-4.1,3.7c-1.1,1.5-1.9,3.3-2.4,5.3c-0.5,2-0.7,4.1-0.7,6.3
	c0,2.1,0.2,4.2,0.6,6.3c0.4,2.1,1.1,3.9,2.1,5.6c1,1.7,2.4,3,4,4.1c1.7,1.1,3.7,1.6,6.2,1.6C283.9,216,285.9,215.5,287.6,214.6z"/>
<path class="st3" d="M95.7,125.1c-4.8-22.6-0.2-44.7,14.9-59.7c4.8-4.8,10.4-8.5,16.4-11.3c1.3,4.9,2.1,10,2.1,15.2
	C129,91.8,116,111.9,95.7,125.1z M71.3,66.7c-4.7-4.7-10.1-8.4-16-11c-1.3,4.8-2,9.8-2,14.9c0,22,12.7,41.6,32.6,54.5
	C90.5,103,86,81.4,71.3,66.7z"/>
<path class="st1" d="M107.4,66c4.8-4.8,10.2-8.5,16.2-11.2c-4.5-16.7-16.4-31.3-32.8-41.4C74.5,23.6,62.6,38.1,58.1,54.9
	c6,2.7,11.5,6.4,16.2,11.2c14.9,14.9,19.5,36.8,14.7,59.1c0.6,0.4,1.2,0.8,1.8,1.2c0.6-0.4,1.2-0.8,1.8-1.2
	C87.9,102.8,92.5,80.9,107.4,66z"/>
<path class="st2" d="M157.7,118.2c-16.4,16.4-40.8,21-65.4,14.9c-0.2-1-0.4-1.9-0.6-2.9c21.2-13.8,34.9-34.8,34.9-58.4
	c0-5.5-0.8-10.8-2.2-15.9c14.2-6.4,31.2-7.3,48.2-3.1C178.6,77.4,174,101.8,157.7,118.2z M54.9,73c0-5.2,0.7-10.2,2-15.1
	c-13.5-6.1-29.5-6.9-45.7-2.9c-5.8,23.3-1.4,46.4,14.1,61.9c15.5,15.5,38.6,19.9,61.9,14.1c0.2-0.9,0.4-1.8,0.6-2.8
	C67.8,115.1,54.9,95.3,54.9,73z"/>
<path class="st0" d="M149.2,56.8c5.7,0,11.5,0.7,17.3,2.2c5.2,20.8,1.2,41.5-12.6,55.4c-10,10-23.5,14.8-38,14.8
	c-5.7,0-11.5-0.7-17.3-2.2c-5.2-20.8-1.2-41.5,12.6-55.4C121.1,61.6,134.6,56.8,149.2,56.8 M149.2,45.8c-17.9,0-34.2,6.4-45.8,18
	C95.2,72,89.6,82.5,87,94.3c-2.4,11-2.1,23.2,0.9,35.3l1.6,6.4l6.4,1.6c6.7,1.7,13.4,2.5,20,2.5c17.9,0,34.2-6.4,45.8-18
	c8.2-8.2,13.8-18.7,16.4-30.5c2.4-11,2.1-23.2-0.9-35.3l-1.6-6.4l-6.4-1.6C162.5,46.6,155.8,45.8,149.2,45.8L149.2,45.8z
	 M32.5,56.8c14.6,0,28.1,4.8,38,14.8c13.8,13.8,17.8,34.5,12.6,55.4c-5.8,1.4-11.7,2.2-17.3,2.2c-14.6,0-28.1-4.8-38-14.8
	C13.9,100.5,10,79.8,15.2,58.9C21,57.5,26.8,56.8,32.5,56.8 M32.5,45.8c-6.6,0-13.3,0.8-20,2.5l-6.4,1.6l-1.6,6.4
	c-3,12.1-3.3,24.3-0.9,35.3c2.6,11.8,8.2,22.3,16.4,30.5c11.6,11.6,27.9,18,45.8,18c6.6,0,13.3-0.8,20-2.5l6.4-1.6l1.6-6.4
	c3-12.1,3.3-24.3,0.9-35.3C92.2,82.5,86.5,72,78.3,63.8C66.7,52.2,50.4,45.8,32.5,45.8L32.5,45.8z M90.9,16.6
	c20,12.3,32.9,31.6,32.9,53.3c0,21.7-12.9,41-32.9,53.3C70.9,110.9,58,91.6,58,69.9S70.9,28.9,90.9,16.6 M90.9,3.7l-5.8,3.5
	c-11.4,7-20.9,16.2-27.5,26.6c-7,11-10.6,23.5-10.6,36.1c0,12.6,3.7,25,10.6,36.1c6.6,10.4,16.1,19.6,27.5,26.6l5.8,3.5l5.8-3.5
	c11.4-7,20.9-16.2,27.5-26.6c7-11,10.6-23.5,10.6-36.1c0-12.5-3.7-25-10.6-36.1c-6.6-10.4-16.1-19.6-27.5-26.6L90.9,3.7L90.9,3.7z"
	/>
</svg>
