<svg version="1.1" xmlns="http://www.w3.org/2000/svg" xmlns:xlink="http://www.w3.org/1999/xlink" x="0px" y="0px"
	 width="168px" height="126px" viewBox="0 0 168 126" enable-background="new 0 0 168 126" xml:space="preserve">
<path fill="#1E281E" d="M21.3,94.9c0,4.4-4.3,8.6-10.5,8.6c-5.1,0-8.2-2.1-9.9-3.4c-0.4-0.3-0.6-1.1-0.4-1.6C0.8,98,1.4,97,1.6,96.6
	C2,96,2.8,95.8,3.7,96.3c0,0,3.3,2.7,7.1,2.7c3.1,0,4.9-1.6,4.9-3.6c0-2.7-2.3-3.9-6.7-6.1c-4-2-8.7-4.6-8.7-9.8
	c0-3.2,2.6-7.9,9.7-7.9c4,0,7,1.4,8.4,2.4c0.7,0.5,0.9,1.5,0.5,2.4l-0.6,1.2c-0.5,0.8-1.5,1.1-2.2,0.7c0,0-3.3-1.8-6.1-1.8
	c-3.4,0-4.3,1.7-4.3,3c0,2.5,2.5,3.6,5.6,5.2C16.6,87.1,21.3,89.4,21.3,94.9z M55.5,87.6c0,8.9-6.2,15.9-14.6,15.9
	c-5,0-8.1-2.5-8.1-2.5v23.1c0,0.8-0.7,1.4-1.4,1.4H29c-0.8,0-1.4-0.7-1.4-1.4V73.8c0-0.8,0.7-1.4,1.4-1.4h1.6c0.7,0,0.9,0.2,1.2,1
	l0.5,1.4c0,0,3.3-3.2,8.8-3.2C49.4,71.6,55.5,78.9,55.5,87.6z M50.2,87.5c0-5.9-3.5-11.2-9.6-11.2c-4.9,0-7.8,3.7-7.8,3.7v15.7
	c0,0,3.2,2.7,7.4,2.7C46.1,98.4,50.2,93.6,50.2,87.5z M76,71.6c-6.3,0-9.1,4-9.1,4l-0.6-2.2c-0.2-0.7-0.7-1.1-1.3-1.1h-1.4
	c-0.8,0-1.4,0.7-1.4,1.4v27.5c0,0.8,0.7,1.4,1.4,1.4h2.4c0.8,0,1.4-0.7,1.4-1.4V81c0,0,2.5-4.3,8.3-4.3c1.1,0,2.3,0.3,3,0.6
	c0.8,0.3,1.4,0.3,1.8-0.7l0.9-2.6C82.1,71.9,78.3,71.6,76,71.6z M118,71.6c-6.3,0-10.6,4-10.6,4l-0.7-2.4c-0.2-0.6-0.5-0.9-1.2-0.9
	H104c-0.8,0-1.4,0.7-1.4,1.4v27.5c0,0.8,0.7,1.4,1.4,1.4h2.4c0.8,0,1.4-0.7,1.4-1.4V81c0,0,4.1-4.3,9.8-4.3c4.3,0,6.8,2.8,6.8,8.6
	v16c0,0.8,0.7,1.4,1.4,1.4h2.4c0.8,0,1.4-0.7,1.4-1.4v-16C129.7,77.3,126.8,71.6,118,71.6z M167.6,114c0,6.3-6.5,12.3-15.7,12.3
	c-10.2,0-14.6-5.5-14.6-10.5c0-4.6,3.6-6.6,4.4-7.1v-0.2c-2-0.5-5.5-2.5-5.5-7.2c0-5.8,5.1-8.7,5.1-8.7s-2.4-3.1-2.4-7.6
	c0-7.1,4.9-13.4,12.8-13.4h12.8c0.8,0,1.4,0.6,1.4,1.4v1.3c0,0.5-0.3,1.2-0.8,1.3l-4.1,0.8c0,0,3.4,2.5,3.4,8.5
	c0,6.9-4.9,12.9-12.8,12.9c-4.9,0-7.2-1.9-7.2-1.9s-3.3,1.5-3.3,4.6c0,1.9,1.4,3.7,4.2,3.7h10.9C162.6,104.3,167.6,107.4,167.6,114z
	 M143.7,84.8c0,5,3.3,8.5,8,8.5c4.6,0,7.6-3.5,7.6-8.5s-3-8.5-7.6-8.5C147.1,76.3,143.7,79.8,143.7,84.8z M162,114.1
	c0-1-0.5-4.9-5.8-4.9c-2.8,0-5.6,0-8.4,0c0,0-5.1,1.4-5.1,5.9c0,3.7,4,6.3,9.1,6.3C156.8,121.4,162,118.5,162,114.1z M119.7,1.4
	c11,12.2,14.2,28.4,8.4,42.1c-4.2,10-17,21.9-34.4,23.7v34.1c0,0.8-0.7,1.4-1.4,1.4h-2.4c-0.8,0-1.4-0.7-1.4-1.4V67.4
	c-3.6-0.1-7.4-0.6-11.3-1.7c-4.8-1.3-9.2-3.4-13.1-6.4c-9.4-7.1-14.2-17.9-12.5-28.2c0.1-0.8,0.8-1.5,1.7-1.8
	c6.4-1.8,13.4-1.8,20.2,0c1.4,0.4,2.9,0.9,4.2,1.4l0.7,0.3l0.2-0.7c0.4-1.8,1-3.5,1.7-5.2C86.2,11.5,100.3,2,117.1,0.5
	c0.4,0,0.7,0,1.1,0.1C118.8,0.7,119.3,1,119.7,1.4z M84.8,62.3l-0.6-1c-1.2-1.9-2.3-4-3.2-6l-0.1-0.1l-0.1-0.1
	c-2.3-1.8-4.6-3.6-7.1-5.4c-2.6-1.9-5.2-4-7.7-5.9c-1.1-0.9-1.3-2.4-0.3-3.3c0.7-0.6,1.7-0.9,2.7-0.6c0.4,0.1,0.8,0.3,1.1,0.6
	c2.4,1.9,4.9,3.8,7.5,5.8l1.3,1L78,45.7c-0.5-3.1-0.7-6.3-0.4-9.4l0-0.4l-0.4-0.2c-1.6-0.7-3.3-1.3-5-1.8c-5-1.4-10.2-1.5-15.1-0.5
	l-0.4,0.1l0,0.4c-0.6,8.2,3.4,16.4,10.8,22c3.2,2.5,6.9,4.2,11,5.3c1.7,0.5,3.4,0.8,5.1,1L84.8,62.3z M116.8,5.6l-0.3-0.3l-0.4,0.1
	c-14.1,1.9-25.8,10.2-30.7,21.8c-4.4,10.4-3,22.7,3.9,32.8L90,61l0.5-1.1c1.6-3.8,4.5-12.9,7.8-20.7c3.3-7.8,5.4-12.5,9.2-19.3
	c0.6-1.1,1.8-1.7,3.1-1.3c0.1,0,0.2,0.1,0.3,0.1c0.7,0.3,1.2,0.7,1.5,1.3c0.3,0.6,0.4,1.3,0.1,1.8c-3.9,6.4-6.7,12.4-9.4,19.3
	c-2.7,6.9-7.6,20.4-7.6,20.4s18.4-2.6,27.5-20C128.9,30.5,125.6,16.3,116.8,5.6z"/></svg>