<svg version="1.1" xmlns="http://www.w3.org/2000/svg" xmlns:xlink="http://www.w3.org/1999/xlink" x="0px" y="0px"
	 width="220px" height="163px" viewBox="0 0 220 163" enable-background="new 0 0 220 163" xml:space="preserve">
<g>
	<g>
		<path fill="#141414" d="M31.8,122.5c0,4.3-1.3,7.8-4,10.5c-2.7,2.7-6.2,4-10.4,4c-2.1,0-4.6-0.5-7.5-1.6c-2.4-0.8-3.9-1.3-4.6-1.3
			c-1.2,0-2.1,0.5-2.5,1.4c-0.4,0.9-0.7,1.4-0.9,1.4c-0.4,0-0.6-0.2-0.6-0.7c0-0.4,0.1-1,0.2-1.9c0.2-1.2,0.2-3.4,0.2-6.4
			c0-0.1,0-0.5,0-1c0-0.5,0-1.2,0-2.1v-1.7c0-0.7,0.2-1.1,0.5-1.1c0.4,0,0.7,0.5,0.9,1.5c0.6,3.4,2.3,6.3,5,8.6
			c2.8,2.3,5.8,3.4,9.2,3.4c2.2,0,3.9-0.7,5.3-2c1.3-1.3,2-3.1,2-5.2c0-1.7-0.6-3.1-1.9-4.3c-0.9-0.8-3.4-1.9-7.4-3.2
			c-4.9-1.6-8.5-3.6-10.7-5.9c-2.2-2.3-3.3-5.2-3.3-8.8c0-3.8,1.3-7,3.9-9.7c2.6-2.6,5.9-4,9.7-4c1.4,0,3.9,0.5,7.5,1.4
			c0.5,0.1,0.9,0.2,1.2,0.2c1.4,0,2.5-0.9,3.3-2.6c0.1-0.3,0.3-0.5,0.5-0.5c0.5,0,0.7,0.4,0.7,1.2L28,94.2c-0.1,0.3-0.1,0.7-0.1,1.4
			c0,2.6,0.2,5.4,0.5,8.1v0.5c0,0.5-0.2,0.8-0.6,0.8c-0.3,0-0.6-0.3-0.8-0.9c-1.9-6.6-5.8-9.9-11.6-9.9c-2.2,0-4,0.6-5.4,1.7
			s-2.1,2.6-2.1,4.5c0,1.7,0.6,3,1.8,4c1.2,1,3.5,2.1,6.9,3.3c6,2.1,10,4.1,12.1,6.2C30.7,115.9,31.8,118.8,31.8,122.5z"/>
		<path fill="#141414" d="M82.1,113.7c0,6.7-1.9,12.3-5.7,16.7c-3.8,4.5-8.6,6.7-14.3,6.7c-4.3,0-7.8-1.7-10.4-5.1v22.1
			c0,1.8,0.1,3,0.3,3.5c0.2,0.5,0.6,0.8,1.3,0.9c0.7,0.1,2.4,0.2,5.2,0.3c0.7,0,1.1,0.3,1.1,0.9c0,0.5-0.4,0.7-1.3,0.7
			c-0.1,0-0.4,0-1,0c-0.6,0-1.2,0-1.7,0h-10c-0.7,0-1.7,0-3,0s-2.7,0-4.3,0h-4.9c-1.4,0-2.2-0.3-2.2-0.8c0-0.5,1.2-0.7,3.6-0.7
			c2,0,3.1-0.2,3.3-0.6c0.2-0.4,0.3-1.6,0.3-3.8v-49.7c0-0.5,0-0.9,0-1.4c0-0.4,0-0.7,0-0.8V100c0.1-1.4-0.5-2.2-1.6-2.6
			c-0.5-0.2-1.6-0.3-3.4-0.3h-1.9c-0.5,0-0.8-0.2-0.8-0.6c0-0.5,0.4-0.7,1.2-0.6c7-0.2,13.1-1.5,18.4-3.9c0.3,0.4,0.4,0.9,0.5,1.6
			l0.2,2.5l0.1,1.7c1.8-2.2,3.5-3.7,5.2-4.5c1.7-0.8,3.9-1.2,6.6-1.2c5.5,0,10,2.1,13.6,6.2C80.2,102.2,82.1,107.4,82.1,113.7z
			 M67.5,113.3c0-12.5-2.8-18.8-8.4-18.8c-2.5,0-4.6,1.2-6.3,3.5c-0.8,1.1-1.2,3-1.2,5.6V123c0,4.2,0.5,7.1,1.6,8.6
			c1.5,2.2,3.5,3.3,6.1,3.3C64.8,134.9,67.5,127.7,67.5,113.3z"/>
		<path fill="#141414" d="M130.8,97.1c0,1.9-2,6.4-7.4,6.4c-3.6,0-6-2-6-5.3c0-1.1,0.4-2.9,1.2-4c0.2-0.3,0.3-0.5,0.3-0.7
			c0-0.6-1.3-5.2-8.7-1.2c-2.8,1.5-6,5.2-7.1,8.7c-0.6,2-1,6.8-1,14.5v7.2v8.7c0,1.8,0.9,2.7,2.7,2.9c1.1,0.1,2.3,0.1,3.8,0.1
			c0.7,0.1,1.1,0.3,1.1,0.7c0,0.5-0.3,0.8-0.9,0.8h-2c-0.6,0-3.5,0-8.6,0c0.3,0-1.2,0-4.4,0h-4.8h-3.8c-0.7,0-1.4,0-2.3,0
			c-0.7,0-1.1-0.2-1.1-0.6s0.5-0.6,1.4-0.6c2.7-0.1,4.3-0.3,4.9-0.8c0.6-0.5,0.8-2,0.8-4.4l-0.1-26.6c0-2.2-0.3-3.8-0.9-4.6
			c-0.6-0.9-2-1.4-4.2-1.6c-1.7-0.1-2.7-0.2-2.9-0.3c-0.2-0.1-0.3-0.3-0.3-0.6c0-0.4,0.3-0.6,0.8-0.6c0.6,0,1.2,0,1.7,0h2
			c5.1,0,10.5-1.1,16.4-3.2c0.3,1.3,0.5,2.8,0.5,4.5v4.1c1.2-3.2,2.7-5.4,4.1-6.7c5.2-5,8.4-5.9,13.1-6.4c5.7-0.7,9.9,3.2,10.8,4.9
			C130.6,93.9,130.8,95,130.8,97.1z"/>
		<path fill="#141414" d="M132.8,101.4c7.3-8.5,8.5-9.5,13.9-9.5c5.7,0,9.3,2,11.1,5.9c0.7,1.6,1.2,3.5,1.3,5.5
			c0.2,2,0.2,6.3,0.2,12.6v14.3c0,2,0.2,3.2,0.5,3.6c0.3,0.4,1.4,0.5,3.2,0.5c1.8,0,2.7,0.3,2.7,0.8c0,0.5-0.8,0.8-2.5,0.8
			c-0.1,0-1,0-2.6,0c-1.6,0-3.9,0-6.9,0h-3.2h-8.5c-0.9,0-1.4-0.2-1.4-0.7c0-0.4,0.4-0.6,1.2-0.6h0.8c1.7,0,2.7-0.2,3-0.6
			c0.3-0.4,0.4-1.9,0.4-4.4v-19.1c0-7.1-0.5-11.3-1.4-12.7c-0.8-1.2-1.9-1.8-3.9-1.8c-2,0-3,1.1-4.2,2.4c-1.1,1.2-2.2,2.8-3.5,4.6
			c-0.1,0.2-0.1,0.2-0.2,0.4C133,103.3,133,101.3,132.8,101.4z"/>
		<path fill="#141414" d="M218.7,98.3c0,3.5-1.7,5.2-5,5.2c-3.1,0-4.6-1.4-4.6-4.2c0-0.5,0.1-1,0.3-1.6c0.2-0.6,0.3-1,0.3-1.3
			c0-1.1-0.6-1.7-1.8-1.7c-0.8,0-1.5,0.3-2.2,1s-1,1.5-1,2.3c0,0.4,0.3,1.1,0.8,2.2c1.2,2.4,1.9,4.7,1.9,6.8c0,4.9-2.3,9-6.8,12.3
			c-3.5,2.5-7.7,3.8-12.8,3.8c-2.1,0-4.5-0.4-7.3-1.3c-0.7-0.2-1.3-0.3-1.9-0.3c-1.2,0-2.3,0.4-3.2,1.2c-0.9,0.8-1.3,1.7-1.3,2.8
			c0,2.4,1.9,3.6,5.6,3.6c2.8,0,7-0.4,12.6-1.2c1.4-0.2,2.7-0.3,3.9-0.3c4.4,0,7.8,1.1,10.2,3.3c2.4,2.2,3.6,5.3,3.6,9.3
			c0,6.4-2.5,11.6-7.5,15.4c-5,3.8-11.7,5.7-20.1,5.7c-5.9,0-10.6-1-14.1-3.1c-3.5-2.1-5.2-4.9-5.2-8.6c0-5.5,4-8.8,12-9.9
			c-4.8-1.9-7.2-4.8-7.2-8.7c0-5.3,3.1-8.9,9.3-10.8c-6.1-3.1-9.1-7.4-9.1-13c0-4.4,1.9-8.1,5.8-11.2c3.8-3,8.5-4.5,14.1-4.5
			c6.4,0,11.4,1.8,14.9,5.3c2.5-3.2,5.5-4.8,8.9-4.8C216.5,92.2,218.7,94.2,218.7,98.3z M205,146.1c0-4.9-2.9-7.3-8.6-7.3
			c-2.8,0-6.4,0.4-10.9,1.1c-3.2,0.5-5.6,0.8-7.2,0.8h-1.5c-1.8,2.2-2.8,5-2.8,8.3c0,7,4.5,10.5,13.6,10.5c4.9,0,9-1.3,12.3-3.8
			C203.3,153,205,149.8,205,146.1z M195.4,108c0-10-2.4-15.1-7.2-15.1c-4.8,0-7.2,4.6-7.2,13.7c0,5.5,0.6,9.4,1.8,11.8
			c1.2,2.4,3.2,3.6,5.9,3.6c2.6,0,4.3-1,5.3-3S195.4,113.3,195.4,108z"/>
		<path fill="#141414" d="M138.6,135.2c0,0.5-0.3,0.7-0.9,0.7h-13.1h-9.4c-0.4,0-0.9,0-1.5,0c-0.5,0-0.8,0-0.9,0
			c-0.8,0-1.2-0.2-1.2-0.6c0-0.3,0.8-0.5,2.3-0.6c2.2-0.1,3.6-0.3,3.9-0.7c0.4-0.4,0.6-1.7,0.6-3.9v-14.2c0-2.5-0.2-5.6-0.6-6.1
			c-0.4-0.5-1.7-0.7-3.9-0.7c-1.4,0-2.2,0-2.4-0.1c-0.2-0.1-0.3-0.3-0.3-0.7c0-0.5,0.5-0.7,1.5-0.7c7.2-0.1,13.4-1.2,18.6-3.4
			c0.1,0.8,0.3,14.1,0.5,17.6v-3.3v10.6c0,2.7,0.2,4.3,0.7,4.7c0.5,0.5,2.2,0.7,5.1,0.7C138.2,134.5,138.6,134.8,138.6,135.2z"/>
	</g>
	<g>
		<path fill="#43FF2E" d="M91.7,23.5l-2.8,22.2l7.9,19.7L101,70l7,4.5l3.1,1.6L124.9,66l4.4-12l3.5-16.8l-4.5-13.8l-10.3,6.3
			L110,41.2C110,41.2,99.8,26.6,91.7,23.5z"/>
		
			<path fill="#F5FA00" stroke="#141414" stroke-width="7" stroke-linecap="round" stroke-linejoin="round" stroke-miterlimit="10" d="
			M108.1,74.5c-11.4-5-19.6-18.6-19.6-34.5c0-5.9,1.1-11.5,3.2-16.5c-8.5-4.3-17.8-5.2-25.5-2.3c-6.7,11.3-4.6,28,6.2,40.8
			C82.7,74.4,98,79.5,110,75.8c-0.5-0.2-1-0.3-1.5-0.5C108.3,75,108.2,74.8,108.1,74.5z"/>
		
			<path fill="#00FFFF" stroke="#141414" stroke-width="7" stroke-linecap="round" stroke-linejoin="round" stroke-miterlimit="10" d="
			M105.3,34.4c1.8,2.2,3.4,4.5,4.7,6.8c1.3-2.3,2.9-4.6,4.7-6.8c4-4.7,8.7-8.4,13.6-10.9c-3.7-9.1-10.3-16-18.3-18.8
			c-8,2.8-14.7,9.7-18.3,18.8C96.6,26,101.3,29.7,105.3,34.4z"/>
		
			<path fill="#F5FA00" stroke="#141414" stroke-width="7" stroke-linecap="round" stroke-linejoin="round" stroke-miterlimit="10" d="
			M153.8,21.2c-7.7-3-17-2-25.5,2.3c2,5,3.2,10.6,3.2,16.5c0,15.9-8.2,29.5-19.6,34.5c-0.1,0.3-0.3,0.5-0.4,0.8
			c-0.5,0.2-1,0.3-1.5,0.5c12,3.7,27.3-1.3,37.6-13.7C158.4,49.2,160.6,32.5,153.8,21.2z"/>
		<path fill="none" stroke="#141414" stroke-width="7" stroke-linecap="round" stroke-linejoin="round" stroke-miterlimit="10" d="
			M110,41.2c-6.4,11.3-7,24-1.9,33.3c0.6,0.3,1.3,0.5,1.9,0.8c0.6-0.2,1.3-0.5,1.9-0.8C117,65.2,116.4,52.5,110,41.2z"/>
	</g>
</g>
</svg>