<svg version="1.1" xmlns="http://www.w3.org/2000/svg" xmlns:xlink="http://www.w3.org/1999/xlink" x="0px" y="0px"
	 width="168px" height="127px" viewBox="0 0 168 127" enable-background="new 0 0 168 127" xml:space="preserve">
<path fill="#1E281E" d="M21.3,95.4c0,4.4-4.3,8.6-10.5,8.6c-5.1,0-8.2-2.1-9.9-3.4c-0.4-0.3-0.6-1.1-0.4-1.6
	c0.3-0.5,0.8-1.5,1.1-1.9c0.4-0.6,1.2-0.8,2.1-0.2c0,0,3.3,2.7,7.1,2.7c3.1,0,4.9-1.6,4.9-3.6c0-2.7-2.3-3.9-6.7-6.1
	c-4-2-8.7-4.6-8.7-9.8c0-3.2,2.6-7.9,9.7-7.9c4,0,7,1.4,8.4,2.4c0.7,0.5,0.9,1.5,0.5,2.4L18.3,78c-0.5,0.8-1.5,1.1-2.2,0.7
	c0,0-3.3-1.8-6.1-1.8c-3.4,0-4.3,1.7-4.3,3c0,2.5,2.5,3.6,5.6,5.2C16.6,87.5,21.3,89.9,21.3,95.4z M55.5,88.1
	c0,8.9-6.2,15.9-14.6,15.9c-5,0-8.1-2.5-8.1-2.5v23.1c0,0.8-0.7,1.4-1.4,1.4H29c-0.8,0-1.4-0.7-1.4-1.4V74.2c0-0.8,0.7-1.4,1.4-1.4
	h1.6c0.7,0,0.9,0.2,1.2,1l0.5,1.4c0,0,3.3-3.2,8.8-3.2C49.4,72,55.5,79.3,55.5,88.1z M50.2,88c0-5.9-3.5-11.2-9.6-11.2
	c-4.9,0-7.8,3.7-7.8,3.7v15.7c0,0,3.2,2.7,7.4,2.7C46.1,98.9,50.2,94.1,50.2,88z M76,72c-6.3,0-9.1,4-9.1,4l-0.6-2.2
	c-0.2-0.7-0.7-1.1-1.3-1.1h-1.4c-0.8,0-1.4,0.7-1.4,1.4v27.5c0,0.8,0.7,1.4,1.4,1.4h2.4c0.8,0,1.4-0.7,1.4-1.4V81.4
	c0,0,2.5-4.3,8.3-4.3c1.1,0,2.3,0.3,3,0.6c0.8,0.3,1.4,0.3,1.8-0.7l0.9-2.6C82.1,72.4,78.3,72,76,72z M118,72c-6.3,0-10.6,4-10.6,4
	l-0.7-2.4c-0.2-0.6-0.5-0.9-1.2-0.9H104c-0.8,0-1.4,0.7-1.4,1.4v27.5c0,0.8,0.7,1.4,1.4,1.4h2.4c0.8,0,1.4-0.7,1.4-1.4V81.4
	c0,0,4.1-4.3,9.8-4.3c4.3,0,6.8,2.8,6.8,8.6v16c0,0.8,0.7,1.4,1.4,1.4h2.4c0.8,0,1.4-0.7,1.4-1.4v-16C129.8,77.8,126.8,72,118,72z
	 M167.6,114.4c0,6.3-6.5,12.3-15.7,12.3c-10.2,0-14.6-5.5-14.6-10.5c0-4.6,3.6-6.6,4.4-7.1V109c-2-0.5-5.5-2.5-5.5-7.2
	c0-5.8,5.1-8.7,5.1-8.7s-2.4-3.1-2.4-7.6c0-7.1,4.9-13.4,12.8-13.4h12.8c0.8,0,1.4,0.6,1.4,1.4v1.3c0,0.5-0.3,1.2-0.8,1.3l-4.1,0.8
	c0,0,3.4,2.5,3.4,8.5c0,6.9-4.9,12.9-12.8,12.9c-4.9,0-7.2-1.9-7.2-1.9s-3.3,1.5-3.3,4.6c0,1.9,1.4,3.7,4.2,3.7h10.9
	C162.6,104.7,167.6,107.8,167.6,114.4z M143.7,85.3c0,5,3.3,8.5,8,8.5c4.6,0,7.6-3.5,7.6-8.5s-3-8.5-7.6-8.5
	C147.1,76.7,143.7,80.2,143.7,85.3z M162,114.6c0-1-0.5-4.9-5.8-4.9c-2.8,0-5.6,0-8.4,0c0,0-5.1,1.4-5.1,5.9c0,3.7,4,6.3,9.1,6.3
	C156.8,121.8,162,119,162,114.6z M120.3,1.2c10.9,12.4,13.9,28.6,7.9,42.2c-5.7,12.9-18.5,21.9-34.3,24l-0.2,0v34.2
	c0,0.8-0.7,1.4-1.4,1.4h-2.4c-0.8,0-1.4-0.7-1.4-1.4V67.2c0-0.1,0-0.1,0-0.2l-0.4,0l-0.7,0c-3.5,0-6.9-1-10.3-2
	c-4.8-1.4-9.2-3.6-13-6.5c-9.3-7.2-14-18.1-12.2-28.4c0.1-0.8,0.8-1.5,1.7-1.7c6.5-1.8,13.5-1.7,20.2,0.3c1.4,0.4,2.8,0.9,4.2,1.5
	l0.7,0.3l0.2-0.7c0.5-1.8,1.1-3.5,1.8-5.2c6-13.7,20.2-23,37.1-24.3c0.4,0,0.7,0,1.1,0.1C119.5,0.5,119.9,0.8,120.3,1.2z M84.7,61.7
	l-0.6-1c-1.2-1.9-2.3-4-3.2-6.1l-0.1-0.1l-0.1-0.1c-2.2-1.8-4.6-3.6-7-5.5c-2.6-2-5.2-4-7.6-6c-1.1-0.9-1.2-2.4-0.3-3.3
	c0.7-0.6,1.7-0.8,2.7-0.6c0.4,0.1,0.8,0.3,1.1,0.6c2.3,1.9,4.8,3.9,7.5,5.9l1.3,1L78.1,45c-0.5-3.1-0.6-6.3-0.3-9.4l0-0.4L77.5,35
	c-1.6-0.7-3.2-1.4-4.9-1.8c-5-1.4-10.2-1.7-15.1-0.7L57,32.5l0,0.4c-0.7,8.2,3.2,16.4,10.5,22.1c3.2,2.5,6.9,4.3,10.9,5.5
	c1.7,0.5,3.4,0.8,5.1,1L84.7,61.7z M117.4,5.4l-0.3-0.3l-0.4,0.1c-14.1,1.7-26,9.9-31,21.4c-4.5,10.3-3.2,22.6,3.5,32.8l0.7,1.1
	l0.5-1.1c1.7-3.8,4.6-12.9,8-20.6c3.4-7.8,5.6-12.4,9.4-19.2c0.6-1,1.8-1.7,3.2-1.3c0.1,0,0.2,0.1,0.3,0.1c0.7,0.3,1.2,0.7,1.5,1.3
	c0.3,0.6,0.4,1.3,0.1,1.8c-4,6.4-6.9,12.3-9.6,19.2c-2.8,6.9-8.3,21.7-8.3,21.7l1.3-0.3c12.4-2.6,22.4-10.4,27-20.7
	C128.3,30,126,16.2,117.4,5.4z"/>
</svg>
