<svg xmlns="http://www.w3.org/2000/svg" x="0px" y="0px" width="522.1px" height="183.2px" viewBox="0 0 522.1 183.2"> <g> <path fill="#f6f6f6" d="M292.2,34.3c0-3.6-10.5-9-15.3-9s-23.3,9.8-24.9,12.5c-1.6,2.6-6.4,36-8.4,41.9s-15.9,21.1-19.5,21.1 c-2.7,0-10.6-12.3-14.1-20.8c11.7-4,21-7.8,23.1-10c3.1-3.3,8.6-17,9.4-22.1s0.3-11.7-0.8-13.9c-1.2-2.5-26.9-11-32.1-7.2 c-6.5,4.8-15.1,33.2-17,47.4c-3.9,1.9-7.7,3.7-11.1,5.3c2.9-5.2,4.7-10.5,4.9-11.7c1.2-8-0.4-20.6-2.5-26.5 c-2.6-7.2-14.2-15.3-17-15.3c-2.8,0-28,3.2-30,6.8c-2,3.6-16.1,30.4-21.4,36.6c-0.6-8,1.5-32.9,1.3-35.4c-0.1-1.6-1.9-6.2-4.9-6.1 c-4,0.1-8.9,0.2-11.1,1.3C99.1,29.9,82.4,39.5,64,50.6c-2.9-7.7-6.9-15.3-9.3-18.7c-3.6-4.9-32.5,3.6-34.1,6 c-0.4,0.6,0.5,17.6,1.8,38.8c-6.2,4.3-9.9,7.3-9.5,8.2c1.1,2.3,5.3,6.1,10.6,9c2.1,31.6,4.6,65,5.3,65.8c1.3,1.5,8.9,3.6,10.3,3.6 s3.2-2.4,3.2-2.4s-0.7-32.9-1.1-63.9c9.6-2.1,20.7-9.3,23.4-11.3c3.2-2.4,2.8-10.3,2.8-20.3c0-1.7-0.3-3.6-0.7-5.6l13.4-8.4 c-1.6,3.2-6.1,22.2-5.6,27.9c0.4,4.6,3.9,10.5,7.6,10.7c6.8,0.5,19.9-26.1,19.9-26.1s0.4,20.6,0.1,25.6c0.7,4.2,9.5,3.1,12.1,2.4 c4.4-0.4,22-36.1,22-32.5c0,1.9-5.2,29.4-6,54.1c-0.6,20.2,3.6,44.1,3.6,48.5c0,9.2,13.7,7.1,14.3,5.6c2.2-5.4,3.2-75.6,3.2-75.6 c3.2,0,7.9,1.5,11.1,1.6c0,0,0,0,0.1,0c0,0,0.1,0,0.1,0c0.7,0,1.3,0,1.8-0.1c0.7-0.2,1.7-0.5,2.9-0.9c7.8-1.9,17.3-4.5,26.7-7.4 c5.5,12.8,16.6,20.1,18.6,21.2c3.3,1.8,16.3,1.2,20.5,0c4.2-1.2,18.1-16.3,20.9-21.9c2.8-5.6,11.1-30.6,11.9-33 c0.8-2.4,4-0.4,4,1.2c0,1.6-8.9,33.8-7.6,43.4c1.3,9.3,9.9,18.7,12.3,19.5c2.4,0.8,8.4-3.2,10.3-6.8c2-3.6-4.8-15.9-4.8-21.1 C280.3,82.4,292.2,37.8,292.2,34.3z M41.9,43.4c4.4,1.9,8.6,7.8,10.3,14.2c-3.8,2.3-7.6,4.6-11.1,6.9 C41.1,52.4,41.4,43.9,41.9,43.4z M45.1,88c-1.3,0.9-2.7,1.1-4,0.9c0-4.5-0.1-9-0.1-13.2l11.6-7.3C52.1,75.7,50.1,84.6,45.1,88z M103.5,40.7c-1.8,13.9-7.1,22.1-13.8,28c-0.9-6.7,3-19.4,7.3-25.2C98.8,41.4,104,38.3,103.5,40.7z M219,42.6 c2.4-1.2,12.9,0.2,12.9,1.8c0,1.6-12.1,14.4-17,18.1c-0.6,0.5-2.4,1.5-5,2.9C212.4,56.2,217.3,43.5,219,42.6z M151.9,79 c-1.1-5.7-0.7-24.2-0.1-26.8c0.7-3.2,6.5-11.6,10.7-14.3c4.4,0,7.8,4.6,10.1,14.1c0,7.2,0.7,18-2.4,19.9 C167.7,73.3,157.1,80,151.9,79z"/> <path fill="#f6f6f6" d="M495.1,30.6c-2.4,0-15.4,30.7-15.8,30.1c-0.4-0.6-0.9-49.8-0.9-49.8c-0.7-3.6-20.3-2.4-23.1-1.9 c-1.9,0.4-12.6,17.5-19.3,28.1c-1.2-12.5-2.3-22-2.4-23.5c-0.4-4.4-6.8-4-13.1-2c-6.4,2-16.7,50.9-21.5,59.7 c0.8-5.2-4.6-56.4-10.6-56.4c-11.1,0-37.5,18.6-43.5,23.3c-2.4,1.4-4.7,3-7,4.5c-0.5-11-1.3-21.7-2.7-23.5 c-2.8-3.6-16.7-1.9-16.6,1.4c0.2,7.2,0.5,22.1,0.6,38.7c-20.7,22.8-28,49.4-28,60.2c0,14.5,13.1,47.6,15.1,50 c2,2.4,19.1,6,22.3,5.2c3.2-0.8,9.9-99.1,9.9-106.6c0-1.5,0-4.3-0.1-7.7c3.1-2.7,6.2-5.3,9.3-7.7c-1.6,9.3-4.3,27.5-3.7,30.6 c0.8,4,12.3,18.3,16.7,18.3c2.6,0,12.6-20.4,20.1-36.5c1.3,16.6,2.8,33.7,3.4,34.1c1.2,0.8,13.1-0.4,16.7-1 c3.6-0.6,11.9-38,13.9-39.6c-0.1,9,0.6,43.1,1.8,46.3c1.2,3.2,15.9,2.9,21.8,2.9c0.2-0.9,0.4-2,0.6-3.3c1.7-8,11.2-51.6,11.2-48.7 c0,3.2,11.9,50.9,11.9,50.9s3.2,1.6,6.4,1.2c3.2-0.4,25.9-53.4,25.9-53.4c-0.8,8.3-8.8,55-5.2,55c3.6,0,12.7-2,15.5-3.6 s4.8-69.8,4.8-72.8S497.5,30.6,495.1,30.6z M309,96.1c2.6-5.3,6.1-10.5,10-15.5c-0.2,20.9-1,40.6-2.9,48 C307.8,125.4,306.2,107.9,309,96.1z M362.4,72.2c-2.4-4.1-0.7-17.4,0.1-20.2c0.8-2.6,7.2-15.4,16.1-17.8c0,0.4,0,1.1,0.1,2 C374.5,47.7,365.5,71.7,362.4,72.2z"/> </g> </svg>