<svg xmlns="http://www.w3.org/2000/svg" x="0px" y="0px" width="496.9px" height="150.4px" viewBox="0 0 496.9 150.4" enable-background="new 0 0 496.9 150.4"> <g> <g> <path fill="#FFFFFF" d="M208.3,108.5c1,1.9,2.3,3.4,3.9,4.6c1.6,1.2,3.5,2,5.7,2.6c2.2,0.6,4.4,0.8,6.8,0.8c1.6,0,3.3-0.1,5.1-0.4 c1.8-0.3,3.5-0.8,5.1-1.5c1.6-0.8,2.9-1.8,3.9-3.1c1.1-1.3,1.6-3,1.6-5c0-2.2-0.7-4-2.1-5.3c-1.4-1.4-3.2-2.5-5.5-3.4 c-2.3-0.9-4.8-1.7-7.7-2.4c-2.9-0.7-5.8-1.4-8.7-2.3c-3-0.8-5.9-1.7-8.8-2.8c-2.9-1.1-5.4-2.5-7.7-4.2c-2.3-1.7-4.1-3.9-5.5-6.5 c-1.4-2.6-2.1-5.7-2.1-9.4c0-4.1,0.9-7.7,2.7-10.8c1.8-3,4.1-5.6,6.9-7.6c2.9-2,6.1-3.5,9.7-4.5c3.6-1,7.2-1.5,10.8-1.5 c4.2,0,8.3,0.5,12.1,1.4c3.9,0.9,7.3,2.5,10.3,4.6c3,2.1,5.4,4.8,7.2,8.1c1.8,3.3,2.6,7.2,2.6,11.9h-17.2c-0.1-2.4-0.7-4.4-1.5-6 c-0.9-1.6-2-2.8-3.4-3.7c-1.4-0.9-3.1-1.5-4.9-1.9c-1.8-0.4-3.9-0.6-6-0.6c-1.4,0-2.9,0.1-4.3,0.5c-1.4,0.3-2.7,0.8-3.9,1.6 c-1.2,0.8-2.1,1.7-2.9,2.8c-0.8,1.1-1.1,2.6-1.1,4.3c0,1.6,0.3,2.9,0.9,3.8c0.6,1,1.8,1.9,3.6,2.7c1.8,0.8,4.2,1.7,7.3,2.5 c3.1,0.8,7.2,1.9,12.2,3.2c1.5,0.3,3.6,0.8,6.3,1.6c2.7,0.8,5.3,2.1,8,3.8c2.6,1.7,4.9,4,6.8,6.9c1.9,2.9,2.9,6.6,2.9,11.1 c0,3.7-0.7,7.1-2.1,10.3c-1.4,3.2-3.6,5.9-6.4,8.2c-2.8,2.3-6.3,4.1-10.5,5.4c-4.2,1.3-9,1.9-14.5,1.9c-4.4,0-8.7-0.5-12.9-1.6 c-4.2-1.1-7.9-2.8-11.1-5.1c-3.2-2.3-5.7-5.3-7.6-8.9c-1.9-3.6-2.8-7.9-2.7-12.9h17.2C206.8,104.3,207.3,106.6,208.3,108.5z"/> <path fill="#FFFFFF" d="M275.2,70v7.5h0.2c2-3.2,4.4-5.5,7.5-6.9c3-1.4,6.3-2.1,9.9-2.1c4.6,0,8.5,0.9,11.9,2.6 c3.3,1.7,6.1,4,8.2,6.9c2.2,2.9,3.8,6.2,4.9,10c1.1,3.8,1.6,7.8,1.6,11.9c0,3.9-0.5,7.7-1.6,11.3c-1.1,3.6-2.6,6.8-4.8,9.6 c-2.1,2.8-4.8,5-8,6.7c-3.2,1.7-6.9,2.5-11.2,2.5c-3.6,0-6.9-0.7-10-2.2c-3-1.5-5.5-3.6-7.5-6.5H276v27.7h-16V70H275.2z M296.1,116.3c1.8-1.1,3.2-2.4,4.3-4.1c1.1-1.7,1.9-3.7,2.3-5.9c0.5-2.3,0.7-4.6,0.7-6.9c0-2.3-0.2-4.6-0.7-6.9 c-0.5-2.3-1.3-4.3-2.4-6c-1.1-1.8-2.6-3.2-4.3-4.3c-1.8-1.1-3.9-1.6-6.5-1.6c-2.6,0-4.8,0.5-6.6,1.6c-1.8,1.1-3.2,2.5-4.3,4.2 c-1.1,1.7-1.9,3.7-2.3,6c-0.4,2.3-0.7,4.6-0.7,7c0,2.3,0.2,4.6,0.7,6.9c0.5,2.3,1.3,4.2,2.4,5.9c1.1,1.7,2.5,3.1,4.3,4.1 c1.8,1.1,4,1.6,6.5,1.6C292.1,117.9,294.3,117.3,296.1,116.3z"/> <path fill="#FFFFFF" d="M337.2,70v10.8h0.2c0.8-1.8,1.8-3.5,3-5c1.3-1.5,2.7-2.9,4.4-3.9c1.7-1.1,3.4-1.9,5.3-2.5 c1.9-0.6,3.8-0.9,5.9-0.9c1.1,0,2.2,0.2,3.5,0.6v14.9c-0.8-0.1-1.7-0.3-2.7-0.4c-1.1-0.1-2.1-0.2-3-0.2c-2.9,0-5.4,0.5-7.5,1.5 c-2,1-3.7,2.3-4.9,4c-1.2,1.7-2.1,3.7-2.6,5.9c-0.5,2.3-0.8,4.7-0.8,7.3v26.3h-16V70H337.2z"/> <path fill="#FFFFFF" d="M362.4,61V47.8h16V61H362.4z M378.4,70v58.4h-16V70H378.4z"/> <path fill="#FFFFFF" d="M397.7,70v8.1h0.3c2-3.4,4.7-5.8,7.9-7.4c3.2-1.5,6.5-2.3,9.9-2.3c4.3,0,7.8,0.6,10.6,1.7 c2.7,1.2,4.9,2.8,6.5,4.9c1.6,2.1,2.7,4.6,3.3,7.6c0.6,3,1,6.3,1,9.9v35.9h-16v-33c0-4.8-0.8-8.4-2.3-10.8c-1.5-2.4-4.2-3.6-8-3.6 c-4.4,0-7.5,1.3-9.5,3.9c-2,2.6-2.9,6.9-2.9,12.8v30.6h-16V70H397.7z"/> <path fill="#FFFFFF" d="M495.9,132.6c-0.6,3-2,5.8-4.1,8.4c-2.1,2.6-5.2,4.8-9.1,6.6c-4,1.8-9.3,2.7-16,2.7 c-2.9,0-5.8-0.4-8.7-1.1c-3-0.7-5.7-1.8-8.1-3.3c-2.4-1.5-4.5-3.4-6.1-5.8c-1.6-2.4-2.5-5.2-2.8-8.5h15.9c0.8,3,2.2,5.1,4.4,6.3 c2.2,1.2,4.7,1.7,7.6,1.7c4.5,0,7.8-1.4,9.9-4.1c2.1-2.7,3.1-6.1,3-10.3v-7.7h-0.2c-1.7,3.1-4.2,5.4-7.4,6.8 c-3.2,1.5-6.6,2.2-10.1,2.2c-4.4,0-8.1-0.8-11.3-2.3c-3.2-1.5-5.8-3.6-7.8-6.3c-2-2.7-3.5-5.8-4.5-9.4c-0.9-3.6-1.4-7.4-1.4-11.3 c0-3.8,0.5-7.4,1.6-10.9c1.1-3.5,2.7-6.6,4.8-9.3c2.1-2.7,4.7-4.8,7.8-6.4c3.1-1.6,6.7-2.4,10.8-2.4c3.8,0,7.2,0.7,10.1,2.1 c2.9,1.4,5.3,3.8,7.3,7.2h0.2V70h15.2v54.6C496.9,127,496.6,129.6,495.9,132.6z M474,113.2c1.7-0.9,3.2-2.1,4.3-3.6 c1.1-1.5,2-3.2,2.5-5.1c0.6-1.9,0.8-3.9,0.8-6c0-2.4-0.2-4.7-0.7-6.8c-0.4-2.1-1.2-4-2.3-5.7c-1.1-1.7-2.4-3-4.2-3.9 c-1.7-1-3.9-1.5-6.5-1.5c-2.3,0-4.2,0.5-5.8,1.4c-1.6,0.9-3,2.1-4.1,3.7c-1.1,1.5-1.9,3.3-2.4,5.3c-0.5,2-0.7,4.1-0.7,6.3 c0,2.1,0.2,4.2,0.6,6.3c0.4,2.1,1.1,3.9,2.1,5.6c1,1.7,2.4,3,4,4.1c1.7,1.1,3.7,1.6,6.2,1.6C470.3,114.6,472.2,114.1,474,113.2z"/> </g> <g> <path fill="#7524AA" d="M92.3,120.2c-4.8-22.6-0.2-44.7,14.9-59.7c4.8-4.8,10.4-8.5,16.4-11.3c1.3,4.9,2.1,10,2.1,15.2 C125.6,87,112.6,107,92.3,120.2z M67.9,61.8c-4.7-4.7-10.1-8.4-16-11c-1.3,4.8-2,9.8-2,14.9c0,22,12.7,41.6,32.6,54.5 C87.1,98.1,82.6,76.5,67.9,61.8z"/> <path fill="#5310F9" d="M105.4,62.3c4.8-4.8,10.2-8.5,16.2-11.2c-4.5-16.7-16.4-31.3-32.8-41.4C72.5,19.9,60.6,34.5,56.1,51.2 c6,2.7,11.5,6.4,16.2,11.2C87.2,77.2,91.8,99.1,87,121.5c0.6,0.4,1.2,0.8,1.8,1.2c0.6-0.4,1.2-0.8,1.8-1.2 C85.9,99.1,90.5,77.2,105.4,62.3z"/> <path fill="#F22277" d="M155.7,114.5c-16.4,16.4-40.8,21-65.4,14.9c-0.2-1-0.4-1.9-0.6-2.9c21.2-13.8,34.9-34.8,34.9-58.4 c0-5.5-0.8-10.8-2.2-15.9c14.2-6.4,31.2-7.3,48.2-3.1C176.6,73.7,172,98.2,155.7,114.5z M52.9,69.3c0-5.2,0.7-10.2,2-15.1 c-13.5-6.1-29.5-6.9-45.7-2.9c-5.8,23.3-1.4,46.4,14.1,61.9C38.8,128.7,62,133,85.3,127.3c0.2-0.9,0.4-1.8,0.6-2.8 C65.8,111.5,52.9,91.6,52.9,69.3z"/> <path fill="#FFFFFF" d="M147.2,53.1c5.7,0,11.5,0.7,17.3,2.2c5.2,20.8,1.2,41.5-12.6,55.4c-10,10-23.5,14.8-38,14.8 c-5.7,0-11.5-0.7-17.3-2.2c-5.2-20.8-1.2-41.5,12.6-55.4C119.1,57.9,132.6,53.1,147.2,53.1 M147.2,42.1c-17.9,0-34.2,6.4-45.8,18 C93.2,68.3,87.6,78.8,85,90.6c-2.4,11-2.1,23.2,0.9,35.3l1.6,6.4l6.4,1.6c6.7,1.7,13.4,2.5,20,2.5c17.9,0,34.2-6.4,45.8-18 c8.2-8.2,13.8-18.7,16.4-30.5c2.4-11,2.1-23.2-0.9-35.3l-1.6-6.4l-6.4-1.6C160.5,42.9,153.8,42.1,147.2,42.1L147.2,42.1z M30.5,53.1c14.6,0,28.1,4.8,38,14.8c13.8,13.8,17.8,34.5,12.6,55.4c-5.8,1.4-11.7,2.2-17.3,2.2c-14.6,0-28.1-4.8-38-14.8 C11.9,96.8,8,76.1,13.2,55.3C19,53.8,24.8,53.1,30.5,53.1 M30.5,42.1c-6.6,0-13.3,0.8-20,2.5l-6.4,1.6l-1.6,6.4 c-3,12.1-3.3,24.3-0.9,35.3c2.6,11.8,8.2,22.3,16.4,30.5c11.6,11.6,27.9,18,45.8,18c6.6,0,13.3-0.8,20-2.5l6.4-1.6l1.6-6.4 c3-12.1,3.3-24.3,0.9-35.3c-2.6-11.8-8.2-22.3-16.4-30.5C64.7,48.5,48.4,42.1,30.5,42.1L30.5,42.1z M88.9,12.9 c20,12.3,32.9,31.6,32.9,53.3c0,21.7-12.9,41-32.9,53.3C68.9,107.3,56,88,56,66.3C56,44.5,68.9,25.2,88.9,12.9 M88.9,0l-5.8,3.5 c-11.4,7-20.9,16.2-27.5,26.6c-7,11-10.6,23.5-10.6,36.1s3.7,25,10.6,36.1c6.6,10.4,16.1,19.6,27.5,26.6l5.8,3.5l5.8-3.5 c11.4-7,20.9-16.2,27.5-26.6c7-11,10.6-23.5,10.6-36.1c0-12.5-3.7-25-10.6-36.1c-6.6-10.4-16.1-19.6-27.5-26.6L88.9,0L88.9,0z"/> </g> </g> </svg>